<mxfile host="app.diagrams.net" modified="2024-07-02T17:03:58.737Z" agent="Mozilla/5.0 (X11; Ubuntu; Linux x86_64; rv:127.0) Gecko/20100101 Firefox/127.0" etag="C0dsVo2CMhmrprXxy0sC" version="24.6.4" type="device">
  <diagram name="Page-1" id="B6N4WW4GB583knlXCKYC">
    <mxGraphModel dx="2009" dy="1230" grid="1" gridSize="10" guides="1" tooltips="1" connect="1" arrows="1" fold="1" page="0" pageScale="1" pageWidth="850" pageHeight="1100" math="0" shadow="0">
      <root>
        <mxCell id="0" />
        <mxCell id="1" parent="0" />
        <mxCell id="lgSUdNdctRrW7hIqT778-41" value="" style="rounded=1;whiteSpace=wrap;html=1;fillColor=#f5f5f5;gradientColor=#b3b3b3;strokeColor=#666666;opacity=60;glass=0;shadow=0;" parent="1" vertex="1">
          <mxGeometry x="-170" y="-200" width="1210" height="510" as="geometry" />
        </mxCell>
        <mxCell id="lgSUdNdctRrW7hIqT778-37" value="" style="rounded=1;whiteSpace=wrap;html=1;fillColor=#f5f5f5;strokeColor=#666666;opacity=60;glass=0;shadow=0;gradientColor=#b3b3b3;gradientDirection=south;" parent="1" vertex="1">
          <mxGeometry x="-150" y="-180" width="450" height="260" as="geometry" />
        </mxCell>
        <mxCell id="lgSUdNdctRrW7hIqT778-46" style="edgeStyle=orthogonalEdgeStyle;rounded=0;orthogonalLoop=1;jettySize=auto;html=1;exitX=1;exitY=0.5;exitDx=0;exitDy=0;entryX=0;entryY=0.5;entryDx=0;entryDy=0;" parent="1" source="D3nEKmiDr9f_Xt4funY0-20" target="lgSUdNdctRrW7hIqT778-3" edge="1">
          <mxGeometry relative="1" as="geometry" />
        </mxCell>
        <mxCell id="lgSUdNdctRrW7hIqT778-48" style="edgeStyle=orthogonalEdgeStyle;rounded=0;orthogonalLoop=1;jettySize=auto;html=1;exitX=1;exitY=0.5;exitDx=0;exitDy=0;entryX=0.5;entryY=1;entryDx=0;entryDy=0;" parent="1" source="D3nEKmiDr9f_Xt4funY0-22" target="lgSUdNdctRrW7hIqT778-3" edge="1">
          <mxGeometry relative="1" as="geometry">
            <mxPoint x="120" y="217.5" as="sourcePoint" />
            <Array as="points">
              <mxPoint x="220" y="188" />
            </Array>
          </mxGeometry>
        </mxCell>
        <mxCell id="lgSUdNdctRrW7hIqT778-40" style="edgeStyle=orthogonalEdgeStyle;rounded=0;orthogonalLoop=1;jettySize=auto;html=1;exitX=1;exitY=0.25;exitDx=0;exitDy=0;entryX=0;entryY=0.25;entryDx=0;entryDy=0;fillColor=#1ba1e2;strokeColor=#006EAF;" parent="1" source="lgSUdNdctRrW7hIqT778-3" target="lgSUdNdctRrW7hIqT778-54" edge="1">
          <mxGeometry relative="1" as="geometry">
            <mxPoint x="440" y="30" as="targetPoint" />
          </mxGeometry>
        </mxCell>
        <mxCell id="D3nEKmiDr9f_Xt4funY0-35" style="edgeStyle=orthogonalEdgeStyle;rounded=0;orthogonalLoop=1;jettySize=auto;html=1;exitX=1;exitY=0.75;exitDx=0;exitDy=0;entryX=0.5;entryY=0;entryDx=0;entryDy=0;fillColor=#60a917;strokeColor=#2D7600;" parent="1" source="lgSUdNdctRrW7hIqT778-3" target="D3nEKmiDr9f_Xt4funY0-33" edge="1">
          <mxGeometry relative="1" as="geometry" />
        </mxCell>
        <mxCell id="lgSUdNdctRrW7hIqT778-3" value="" style="rounded=1;whiteSpace=wrap;html=1;" parent="1" vertex="1">
          <mxGeometry x="160" y="-99" width="120" height="120" as="geometry" />
        </mxCell>
        <mxCell id="D3nEKmiDr9f_Xt4funY0-29" style="edgeStyle=orthogonalEdgeStyle;rounded=0;orthogonalLoop=1;jettySize=auto;html=1;entryX=0;entryY=0.5;entryDx=0;entryDy=0;" parent="1" target="D3nEKmiDr9f_Xt4funY0-22" edge="1">
          <mxGeometry relative="1" as="geometry">
            <mxPoint x="-50" y="188" as="sourcePoint" />
          </mxGeometry>
        </mxCell>
        <mxCell id="lgSUdNdctRrW7hIqT778-16" value="&lt;font style=&quot;font-size: 20px;&quot; color=&quot;#000000&quot;&gt;Claim&lt;/font&gt;" style="sketch=0;outlineConnect=0;fillColor=#000000;strokeColor=#C73500;dashed=0;verticalLabelPosition=bottom;verticalAlign=top;align=center;html=1;fontSize=12;fontStyle=0;aspect=fixed;pointerEvents=1;shape=mxgraph.aws4.document;fontColor=#000000;" parent="1" vertex="1">
          <mxGeometry x="-120.5" y="148.5" width="57" height="78" as="geometry" />
        </mxCell>
        <mxCell id="OyMZTWVmQyy47g8Lx25G-2" style="edgeStyle=orthogonalEdgeStyle;rounded=0;orthogonalLoop=1;jettySize=auto;html=1;entryX=0;entryY=0.5;entryDx=0;entryDy=0;" edge="1" parent="1" target="D3nEKmiDr9f_Xt4funY0-20">
          <mxGeometry relative="1" as="geometry">
            <mxPoint x="-50" y="-39" as="sourcePoint" />
          </mxGeometry>
        </mxCell>
        <mxCell id="lgSUdNdctRrW7hIqT778-17" value="&lt;font style=&quot;font-size: 20px;&quot;&gt;&lt;font style=&quot;font-size: 20px;&quot; color=&quot;#000000&quot;&gt;Ground Truth&lt;/font&gt;&lt;br&gt;&lt;/font&gt;" style="sketch=0;outlineConnect=0;dashed=0;verticalLabelPosition=bottom;verticalAlign=top;align=center;html=1;fontSize=12;fontStyle=0;aspect=fixed;pointerEvents=1;shape=mxgraph.aws4.documents;fillColor=#000000;strokeColor=#005700;fontColor=#ffffff;" parent="1" vertex="1">
          <mxGeometry x="-120.5" y="-78" width="64" height="78" as="geometry" />
        </mxCell>
        <mxCell id="lgSUdNdctRrW7hIqT778-25" value="&lt;div style=&quot;font-size: 20px;&quot;&gt;&lt;font style=&quot;font-size: 20px;&quot; color=&quot;#000000&quot;&gt;Vector&lt;/font&gt;&lt;/div&gt;&lt;div style=&quot;font-size: 20px;&quot;&gt;&lt;font style=&quot;font-size: 20px;&quot; color=&quot;#000000&quot;&gt;Database&lt;/font&gt;&lt;/div&gt;" style="sketch=0;html=1;aspect=fixed;strokeColor=#006EAF;shadow=0;fillColor=#1ba1e2;verticalAlign=top;labelPosition=center;verticalLabelPosition=bottom;shape=mxgraph.gcp2.database_2;fontColor=#ffffff;" parent="1" vertex="1">
          <mxGeometry x="200.70000000000002" y="-89.25" width="38.61" height="49.5" as="geometry" />
        </mxCell>
        <mxCell id="lgSUdNdctRrW7hIqT778-28" value="&lt;div style=&quot;font-size: 20px;&quot;&gt;&lt;font style=&quot;font-size: 20px;&quot;&gt;Top 5 Similar&lt;/font&gt;&lt;/div&gt;&lt;div style=&quot;font-size: 20px;&quot;&gt;&lt;font style=&quot;font-size: 20px;&quot;&gt;Texts&lt;br&gt;&lt;/font&gt;&lt;/div&gt;" style="text;html=1;align=center;verticalAlign=middle;resizable=0;points=[];autosize=1;strokeColor=none;fillColor=none;" parent="1" vertex="1">
          <mxGeometry x="295" y="-61" width="140" height="60" as="geometry" />
        </mxCell>
        <mxCell id="lgSUdNdctRrW7hIqT778-42" value="&lt;font style=&quot;font-size: 20px;&quot;&gt;Refresh DB every Epoch&lt;br&gt;&lt;/font&gt;" style="text;html=1;align=center;verticalAlign=middle;resizable=0;points=[];autosize=1;strokeColor=none;fillColor=none;" parent="1" vertex="1">
          <mxGeometry x="-55" y="-170" width="240" height="40" as="geometry" />
        </mxCell>
        <mxCell id="lgSUdNdctRrW7hIqT778-43" value="&lt;div style=&quot;font-size: 24px;&quot;&gt;&lt;font style=&quot;font-size: 24px;&quot;&gt;&lt;b&gt;&lt;font style=&quot;font-size: 24px;&quot;&gt;Encoder Model&amp;nbsp;&lt;/font&gt;&lt;/b&gt;&lt;/font&gt;&lt;/div&gt;&lt;div style=&quot;font-size: 24px;&quot;&gt;&lt;font style=&quot;font-size: 24px;&quot;&gt;&lt;b&gt;&lt;font style=&quot;font-size: 24px;&quot;&gt;Training&lt;/font&gt;&lt;/b&gt;&lt;/font&gt;&lt;/div&gt;" style="text;html=1;align=center;verticalAlign=middle;resizable=0;points=[];autosize=1;strokeColor=none;fillColor=none;" parent="1" vertex="1">
          <mxGeometry x="815" y="-188.5" width="200" height="70" as="geometry" />
        </mxCell>
        <mxCell id="lgSUdNdctRrW7hIqT778-50" value="&lt;div style=&quot;font-size: 20px;&quot;&gt;&lt;font style=&quot;font-size: 20px;&quot;&gt;Bottom E of Top Q&amp;nbsp;&lt;/font&gt;&lt;/div&gt;&lt;div style=&quot;font-size: 20px;&quot;&gt;&lt;font style=&quot;font-size: 20px;&quot;&gt;Similar&lt;font style=&quot;font-size: 20px;&quot;&gt; Texts&lt;/font&gt;&lt;font style=&quot;font-size: 20px;&quot;&gt;&lt;br&gt;&lt;/font&gt;&lt;/font&gt;&lt;/div&gt;" style="text;html=1;align=center;verticalAlign=middle;resizable=0;points=[];autosize=1;strokeColor=none;fillColor=none;" parent="1" vertex="1">
          <mxGeometry x="355" y="-130" width="190" height="60" as="geometry" />
        </mxCell>
        <mxCell id="D3nEKmiDr9f_Xt4funY0-25" style="edgeStyle=orthogonalEdgeStyle;rounded=0;orthogonalLoop=1;jettySize=auto;html=1;entryX=0;entryY=0.75;entryDx=0;entryDy=0;fillColor=#6a00ff;strokeColor=#3700CC;" parent="1" target="lgSUdNdctRrW7hIqT778-54" edge="1">
          <mxGeometry relative="1" as="geometry">
            <mxPoint x="550" y="30" as="sourcePoint" />
            <Array as="points">
              <mxPoint x="550" y="30" />
              <mxPoint x="550" y="30" />
            </Array>
          </mxGeometry>
        </mxCell>
        <mxCell id="lgSUdNdctRrW7hIqT778-51" value="&lt;font style=&quot;font-size: 20px;&quot; color=&quot;#000000&quot;&gt;E of Evidence&lt;/font&gt;" style="sketch=0;outlineConnect=0;dashed=0;verticalLabelPosition=bottom;verticalAlign=top;align=center;html=1;fontSize=12;fontStyle=0;aspect=fixed;pointerEvents=1;shape=mxgraph.aws4.documents;fillColor=#000000;strokeColor=#005700;fontColor=#ffffff;" parent="1" vertex="1">
          <mxGeometry x="466" y="-11" width="64" height="78" as="geometry" />
        </mxCell>
        <mxCell id="D3nEKmiDr9f_Xt4funY0-39" style="edgeStyle=orthogonalEdgeStyle;rounded=0;orthogonalLoop=1;jettySize=auto;html=1;entryX=0.5;entryY=0;entryDx=0;entryDy=0;fillColor=#1ba1e2;strokeColor=#006EAF;" parent="1" source="lgSUdNdctRrW7hIqT778-53" target="D3nEKmiDr9f_Xt4funY0-30" edge="1">
          <mxGeometry relative="1" as="geometry" />
        </mxCell>
        <mxCell id="lgSUdNdctRrW7hIqT778-53" value="&lt;div style=&quot;font-size: 20px;&quot;&gt;&lt;font style=&quot;font-size: 20px;&quot; color=&quot;#000000&quot;&gt;Cosine Embedding&lt;/font&gt;&lt;/div&gt;&lt;div style=&quot;font-size: 20px;&quot;&gt;&lt;font style=&quot;font-size: 20px;&quot; color=&quot;#000000&quot;&gt;Loss&lt;/font&gt;&lt;font style=&quot;font-size: 20px;&quot; color=&quot;#000000&quot;&gt;&lt;br&gt;&lt;/font&gt;&lt;/div&gt;" style="ellipse;whiteSpace=wrap;html=1;fillColor=#5D93EF;strokeColor=#001DBC;fontColor=#ffffff;gradientDirection=north;gradientColor=#87CFFF;" parent="1" vertex="1">
          <mxGeometry x="840" y="-89" width="180" height="140" as="geometry" />
        </mxCell>
        <mxCell id="lgSUdNdctRrW7hIqT778-64" style="edgeStyle=orthogonalEdgeStyle;rounded=0;orthogonalLoop=1;jettySize=auto;html=1;exitX=1;exitY=0.25;exitDx=0;exitDy=0;entryX=0;entryY=0;entryDx=0;entryDy=0;fillColor=#1ba1e2;strokeColor=#006EAF;" parent="1" source="lgSUdNdctRrW7hIqT778-54" target="lgSUdNdctRrW7hIqT778-53" edge="1">
          <mxGeometry relative="1" as="geometry" />
        </mxCell>
        <mxCell id="lgSUdNdctRrW7hIqT778-65" style="edgeStyle=orthogonalEdgeStyle;rounded=0;orthogonalLoop=1;jettySize=auto;html=1;exitX=1;exitY=0.5;exitDx=0;exitDy=0;entryX=0;entryY=0.5;entryDx=0;entryDy=0;fillColor=#1ba1e2;strokeColor=#006EAF;" parent="1" source="lgSUdNdctRrW7hIqT778-54" target="lgSUdNdctRrW7hIqT778-53" edge="1">
          <mxGeometry relative="1" as="geometry" />
        </mxCell>
        <mxCell id="lgSUdNdctRrW7hIqT778-54" value="" style="rounded=1;whiteSpace=wrap;html=1;" parent="1" vertex="1">
          <mxGeometry x="577" y="-118.5" width="120" height="198.5" as="geometry" />
        </mxCell>
        <mxCell id="lgSUdNdctRrW7hIqT778-55" value="&lt;div style=&quot;font-size: 20px;&quot;&gt;&lt;font style=&quot;font-size: 20px;&quot; color=&quot;#000000&quot;&gt;Encoder&lt;/font&gt;&lt;/div&gt;&lt;div style=&quot;font-size: 20px;&quot;&gt;&lt;font style=&quot;font-size: 20px;&quot; color=&quot;#000000&quot;&gt;Model&lt;/font&gt;&lt;/div&gt;" style="sketch=0;outlineConnect=0;fontColor=#ffffff;fillColor=#1ba1e2;strokeColor=#006EAF;dashed=0;verticalLabelPosition=bottom;verticalAlign=top;align=center;html=1;fontSize=12;fontStyle=0;aspect=fixed;pointerEvents=1;shape=mxgraph.aws4.sagemaker_model;" parent="1" vertex="1">
          <mxGeometry x="588" y="-96.5" width="98" height="98" as="geometry" />
        </mxCell>
        <mxCell id="lgSUdNdctRrW7hIqT778-66" value="&lt;div style=&quot;font-size: 20px;&quot;&gt;&lt;font style=&quot;font-size: 20px;&quot;&gt;Positive&amp;nbsp;&lt;/font&gt;&lt;/div&gt;&lt;div style=&quot;font-size: 20px;&quot;&gt;&lt;font style=&quot;font-size: 20px;&quot;&gt;Examples&lt;/font&gt;&lt;/div&gt;" style="text;html=1;align=center;verticalAlign=middle;resizable=0;points=[];autosize=1;strokeColor=none;fillColor=none;" parent="1" vertex="1">
          <mxGeometry x="715" y="-9" width="110" height="60" as="geometry" />
        </mxCell>
        <mxCell id="lgSUdNdctRrW7hIqT778-67" value="&lt;div style=&quot;font-size: 20px;&quot;&gt;&lt;font style=&quot;font-size: 20px;&quot;&gt;Negative&lt;/font&gt;&lt;/div&gt;&lt;div style=&quot;font-size: 20px;&quot;&gt;&lt;font style=&quot;font-size: 20px;&quot;&gt;Examples&lt;/font&gt;&lt;/div&gt;" style="text;html=1;align=center;verticalAlign=middle;resizable=0;points=[];autosize=1;strokeColor=none;fillColor=none;" parent="1" vertex="1">
          <mxGeometry x="715" y="-130" width="110" height="60" as="geometry" />
        </mxCell>
        <mxCell id="D3nEKmiDr9f_Xt4funY0-6" value="" style="rounded=1;whiteSpace=wrap;html=1;fillColor=#f5f5f5;gradientColor=#b3b3b3;strokeColor=#666666;opacity=60;glass=0;shadow=0;" parent="1" vertex="1">
          <mxGeometry x="110" y="320" width="930" height="390" as="geometry" />
        </mxCell>
        <mxCell id="D3nEKmiDr9f_Xt4funY0-7" style="edgeStyle=orthogonalEdgeStyle;rounded=0;orthogonalLoop=1;jettySize=auto;html=1;entryX=0;entryY=0.5;entryDx=0;entryDy=0;fillColor=#60a917;strokeColor=#2D7600;" parent="1" source="D3nEKmiDr9f_Xt4funY0-9" target="D3nEKmiDr9f_Xt4funY0-15" edge="1">
          <mxGeometry relative="1" as="geometry">
            <mxPoint x="630" y="800" as="targetPoint" />
          </mxGeometry>
        </mxCell>
        <mxCell id="D3nEKmiDr9f_Xt4funY0-8" value="&lt;font style=&quot;font-size: 20px;&quot;&gt;Prediction&lt;/font&gt;" style="edgeLabel;html=1;align=center;verticalAlign=middle;resizable=0;points=[];labelBackgroundColor=none;" parent="D3nEKmiDr9f_Xt4funY0-7" vertex="1" connectable="0">
          <mxGeometry x="0.7308" y="-1" relative="1" as="geometry">
            <mxPoint x="-84" y="-22" as="offset" />
          </mxGeometry>
        </mxCell>
        <mxCell id="D3nEKmiDr9f_Xt4funY0-9" value="" style="rounded=1;whiteSpace=wrap;html=1;" parent="1" vertex="1">
          <mxGeometry x="352" y="560" width="120" height="120" as="geometry" />
        </mxCell>
        <mxCell id="D3nEKmiDr9f_Xt4funY0-10" value="&lt;font style=&quot;font-size: 20px;&quot; color=&quot;#000000&quot;&gt;NLI Model&lt;br&gt;&lt;/font&gt;" style="outlineConnect=0;dashed=0;verticalLabelPosition=bottom;verticalAlign=top;align=center;html=1;shape=mxgraph.aws3.vpc_nat_gateway;fillColor=#1ba1e2;strokeColor=#006EAF;fontColor=#ffffff;" parent="1" vertex="1">
          <mxGeometry x="377.5" y="576" width="69" height="72" as="geometry" />
        </mxCell>
        <mxCell id="D3nEKmiDr9f_Xt4funY0-11" style="edgeStyle=orthogonalEdgeStyle;rounded=0;orthogonalLoop=1;jettySize=auto;html=1;entryX=0;entryY=0.75;entryDx=0;entryDy=0;fillColor=#60a917;strokeColor=#2D7600;" parent="1" target="D3nEKmiDr9f_Xt4funY0-14" edge="1">
          <mxGeometry relative="1" as="geometry">
            <mxPoint x="460" y="470" as="sourcePoint" />
            <Array as="points">
              <mxPoint x="560" y="469" />
              <mxPoint x="560" y="440" />
            </Array>
          </mxGeometry>
        </mxCell>
        <mxCell id="D3nEKmiDr9f_Xt4funY0-12" value="&lt;font style=&quot;font-size: 20px;&quot; color=&quot;#000000&quot;&gt;Labels&lt;/font&gt;" style="sketch=0;outlineConnect=0;dashed=0;verticalLabelPosition=bottom;verticalAlign=top;align=center;html=1;fontSize=12;fontStyle=0;aspect=fixed;pointerEvents=1;shape=mxgraph.aws4.documents;fillColor=#000000;strokeColor=#005700;fontColor=#ffffff;" parent="1" vertex="1">
          <mxGeometry x="380" y="430" width="64" height="78" as="geometry" />
        </mxCell>
        <mxCell id="D3nEKmiDr9f_Xt4funY0-13" style="edgeStyle=orthogonalEdgeStyle;rounded=0;orthogonalLoop=1;jettySize=auto;html=1;entryX=0.5;entryY=0;entryDx=0;entryDy=0;fillColor=#60a917;strokeColor=#2D7600;" parent="1" source="D3nEKmiDr9f_Xt4funY0-14" target="D3nEKmiDr9f_Xt4funY0-15" edge="1">
          <mxGeometry relative="1" as="geometry">
            <mxPoint x="710" y="600" as="targetPoint" />
          </mxGeometry>
        </mxCell>
        <mxCell id="D3nEKmiDr9f_Xt4funY0-14" value="&lt;div style=&quot;font-size: 20px;&quot;&gt;&lt;font style=&quot;font-size: 20px;&quot;&gt;Dynamic Label&lt;/font&gt;&lt;/div&gt;&lt;div style=&quot;font-size: 20px;&quot;&gt;&lt;font style=&quot;font-size: 20px;&quot;&gt;Adapter&lt;/font&gt;&lt;/div&gt;" style="rounded=1;whiteSpace=wrap;html=1;" parent="1" vertex="1">
          <mxGeometry x="697" y="350" width="120" height="120" as="geometry" />
        </mxCell>
        <mxCell id="D3nEKmiDr9f_Xt4funY0-31" style="edgeStyle=orthogonalEdgeStyle;rounded=0;orthogonalLoop=1;jettySize=auto;html=1;exitX=1;exitY=0.5;exitDx=0;exitDy=0;entryX=0.5;entryY=1;entryDx=0;entryDy=0;fillColor=#60a917;strokeColor=#2D7600;" parent="1" source="D3nEKmiDr9f_Xt4funY0-15" target="D3nEKmiDr9f_Xt4funY0-30" edge="1">
          <mxGeometry relative="1" as="geometry" />
        </mxCell>
        <mxCell id="D3nEKmiDr9f_Xt4funY0-15" value="&lt;div style=&quot;font-size: 20px;&quot;&gt;&lt;font style=&quot;font-size: 20px;&quot; color=&quot;#000000&quot;&gt;Binary Cross&lt;/font&gt;&lt;/div&gt;&lt;div style=&quot;font-size: 20px;&quot;&gt;&lt;font style=&quot;font-size: 20px;&quot; color=&quot;#000000&quot;&gt;&lt;font style=&quot;font-size: 20px;&quot;&gt;Entropy Loss&lt;/font&gt;&lt;font style=&quot;font-size: 20px;&quot;&gt;&lt;br&gt;&lt;/font&gt;&lt;/font&gt;&lt;/div&gt;" style="ellipse;whiteSpace=wrap;html=1;fillColor=#82A971;strokeColor=#2D7600;fontColor=#ffffff;gradientColor=#A6FFA6;gradientDirection=north;" parent="1" vertex="1">
          <mxGeometry x="672" y="550" width="170" height="140" as="geometry" />
        </mxCell>
        <mxCell id="D3nEKmiDr9f_Xt4funY0-16" value="&lt;div style=&quot;font-size: 20px;&quot;&gt;&lt;font style=&quot;font-size: 20px;&quot;&gt;Dynamic&amp;nbsp;&lt;/font&gt;&lt;/div&gt;&lt;div style=&quot;font-size: 20px;&quot;&gt;&lt;font style=&quot;font-size: 20px;&quot;&gt;Label&lt;/font&gt;&lt;/div&gt;" style="text;html=1;align=center;verticalAlign=middle;resizable=0;points=[];autosize=1;strokeColor=none;fillColor=none;" parent="1" vertex="1">
          <mxGeometry x="755" y="485" width="110" height="60" as="geometry" />
        </mxCell>
        <mxCell id="D3nEKmiDr9f_Xt4funY0-17" value="&lt;div style=&quot;font-size: 24px;&quot; align=&quot;center&quot;&gt;&lt;font style=&quot;font-size: 24px;&quot;&gt;&lt;b&gt;&lt;font style=&quot;font-size: 24px;&quot;&gt;NLI Model&amp;nbsp;&lt;/font&gt;&lt;/b&gt;&lt;/font&gt;&lt;/div&gt;&lt;div style=&quot;font-size: 24px;&quot; align=&quot;center&quot;&gt;&lt;font style=&quot;font-size: 24px;&quot;&gt;&lt;b&gt;&lt;font style=&quot;font-size: 24px;&quot;&gt;Training&lt;/font&gt;&lt;/b&gt;&lt;/font&gt;&lt;/div&gt;" style="text;whiteSpace=wrap;html=1;align=center;" parent="1" vertex="1">
          <mxGeometry x="140" y="340" width="130" height="50" as="geometry" />
        </mxCell>
        <mxCell id="lgSUdNdctRrW7hIqT778-49" style="edgeStyle=orthogonalEdgeStyle;rounded=0;orthogonalLoop=1;jettySize=auto;html=1;exitX=1;exitY=0.75;exitDx=0;exitDy=0;entryX=0;entryY=0.25;entryDx=0;entryDy=0;jumpStyle=gap;jumpSize=16;fillColor=#60a917;strokeColor=#2D7600;" parent="1" source="lgSUdNdctRrW7hIqT778-3" target="D3nEKmiDr9f_Xt4funY0-9" edge="1">
          <mxGeometry relative="1" as="geometry">
            <mxPoint x="390" y="750" as="targetPoint" />
            <mxPoint x="250" y="90" as="sourcePoint" />
            <Array as="points">
              <mxPoint x="320" y="-9" />
              <mxPoint x="320" y="590" />
            </Array>
          </mxGeometry>
        </mxCell>
        <mxCell id="D3nEKmiDr9f_Xt4funY0-20" value="" style="rounded=1;whiteSpace=wrap;html=1;" parent="1" vertex="1">
          <mxGeometry x="-11" y="-119" width="120" height="160" as="geometry" />
        </mxCell>
        <mxCell id="D3nEKmiDr9f_Xt4funY0-21" value="&lt;div style=&quot;font-size: 20px;&quot;&gt;&lt;font style=&quot;font-size: 20px;&quot; color=&quot;#000000&quot;&gt;Encoder&lt;/font&gt;&lt;/div&gt;&lt;div style=&quot;font-size: 20px;&quot;&gt;&lt;font style=&quot;font-size: 20px;&quot; color=&quot;#000000&quot;&gt;Model&lt;/font&gt;&lt;/div&gt;" style="sketch=0;outlineConnect=0;fontColor=#ffffff;fillColor=#1ba1e2;strokeColor=#006EAF;dashed=0;verticalLabelPosition=bottom;verticalAlign=top;align=center;html=1;fontSize=12;fontStyle=0;aspect=fixed;pointerEvents=1;shape=mxgraph.aws4.sagemaker_model;" parent="1" vertex="1">
          <mxGeometry x="4.5" y="-109" width="89" height="89" as="geometry" />
        </mxCell>
        <mxCell id="D3nEKmiDr9f_Xt4funY0-27" style="edgeStyle=orthogonalEdgeStyle;rounded=0;orthogonalLoop=1;jettySize=auto;html=1;entryX=0;entryY=0.75;entryDx=0;entryDy=0;fillColor=#60a917;strokeColor=#2D7600;" parent="1" source="D3nEKmiDr9f_Xt4funY0-22" target="D3nEKmiDr9f_Xt4funY0-9" edge="1">
          <mxGeometry relative="1" as="geometry">
            <Array as="points">
              <mxPoint x="280" y="187" />
              <mxPoint x="280" y="650" />
            </Array>
          </mxGeometry>
        </mxCell>
        <mxCell id="D3nEKmiDr9f_Xt4funY0-38" style="edgeStyle=orthogonalEdgeStyle;rounded=0;orthogonalLoop=1;jettySize=auto;html=1;jumpStyle=gap;jumpSize=16;fillColor=#1ba1e2;strokeColor=#006EAF;entryX=0;entryY=1;entryDx=0;entryDy=0;" parent="1" source="D3nEKmiDr9f_Xt4funY0-22" target="lgSUdNdctRrW7hIqT778-53" edge="1">
          <mxGeometry relative="1" as="geometry">
            <Array as="points">
              <mxPoint x="830" y="187" />
              <mxPoint x="830" y="31" />
            </Array>
          </mxGeometry>
        </mxCell>
        <mxCell id="D3nEKmiDr9f_Xt4funY0-22" value="" style="rounded=1;whiteSpace=wrap;html=1;" parent="1" vertex="1">
          <mxGeometry x="-11" y="105" width="120" height="165" as="geometry" />
        </mxCell>
        <mxCell id="D3nEKmiDr9f_Xt4funY0-23" value="&lt;div style=&quot;font-size: 20px;&quot;&gt;&lt;font style=&quot;font-size: 20px;&quot; color=&quot;#000000&quot;&gt;Encoder&lt;/font&gt;&lt;/div&gt;&lt;div style=&quot;font-size: 20px;&quot;&gt;&lt;font style=&quot;font-size: 20px;&quot; color=&quot;#000000&quot;&gt;Model&lt;/font&gt;&lt;/div&gt;" style="sketch=0;outlineConnect=0;fontColor=#ffffff;fillColor=#1ba1e2;strokeColor=#006EAF;dashed=0;verticalLabelPosition=bottom;verticalAlign=top;align=center;html=1;fontSize=12;fontStyle=0;aspect=fixed;pointerEvents=1;shape=mxgraph.aws4.sagemaker_model;" parent="1" vertex="1">
          <mxGeometry x="2" y="116" width="94" height="94" as="geometry" />
        </mxCell>
        <mxCell id="D3nEKmiDr9f_Xt4funY0-30" value="&lt;div style=&quot;font-size: 20px;&quot;&gt;&lt;font style=&quot;font-size: 20px;&quot;&gt;Total&lt;/font&gt;&lt;/div&gt;&lt;div style=&quot;font-size: 20px;&quot;&gt;&lt;font style=&quot;font-size: 20px;&quot;&gt;&lt;font style=&quot;font-size: 20px;&quot;&gt;Loss&lt;/font&gt;&lt;font style=&quot;font-size: 20px;&quot;&gt;&lt;br&gt;&lt;/font&gt;&lt;/font&gt;&lt;/div&gt;" style="ellipse;whiteSpace=wrap;html=1;fillColor=#fff2cc;gradientColor=#ffd966;strokeColor=#d6b656;" parent="1" vertex="1">
          <mxGeometry x="845" y="240.5" width="170" height="140" as="geometry" />
        </mxCell>
        <mxCell id="D3nEKmiDr9f_Xt4funY0-36" style="edgeStyle=orthogonalEdgeStyle;rounded=0;orthogonalLoop=1;jettySize=auto;html=1;entryX=0;entryY=0.5;entryDx=0;entryDy=0;exitX=0.5;exitY=1;exitDx=0;exitDy=0;fillColor=#60a917;strokeColor=#2D7600;" parent="1" source="D3nEKmiDr9f_Xt4funY0-33" target="D3nEKmiDr9f_Xt4funY0-14" edge="1">
          <mxGeometry relative="1" as="geometry" />
        </mxCell>
        <mxCell id="D3nEKmiDr9f_Xt4funY0-33" value="" style="rounded=1;whiteSpace=wrap;html=1;" parent="1" vertex="1">
          <mxGeometry x="352" y="240" width="120" height="150" as="geometry" />
        </mxCell>
        <mxCell id="D3nEKmiDr9f_Xt4funY0-34" value="&lt;div style=&quot;font-size: 20px;&quot;&gt;&lt;font style=&quot;font-size: 20px;&quot; color=&quot;#000000&quot;&gt;Encoder&lt;/font&gt;&lt;/div&gt;&lt;div style=&quot;font-size: 20px;&quot;&gt;&lt;font style=&quot;font-size: 20px;&quot; color=&quot;#000000&quot;&gt;Model&lt;/font&gt;&lt;/div&gt;" style="sketch=0;outlineConnect=0;fontColor=#ffffff;fillColor=#1ba1e2;strokeColor=#006EAF;dashed=0;verticalLabelPosition=bottom;verticalAlign=top;align=center;html=1;fontSize=12;fontStyle=0;aspect=fixed;pointerEvents=1;shape=mxgraph.aws4.sagemaker_model;" parent="1" vertex="1">
          <mxGeometry x="367.5" y="246" width="89" height="89" as="geometry" />
        </mxCell>
        <mxCell id="D3nEKmiDr9f_Xt4funY0-26" style="edgeStyle=orthogonalEdgeStyle;rounded=0;orthogonalLoop=1;jettySize=auto;html=1;entryX=0;entryY=0.25;entryDx=0;entryDy=0;jumpStyle=gap;jumpSize=16;fillColor=#60a917;strokeColor=#2D7600;" parent="1" target="D3nEKmiDr9f_Xt4funY0-14" edge="1">
          <mxGeometry relative="1" as="geometry">
            <mxPoint x="500" y="100" as="sourcePoint" />
            <mxPoint x="717" y="430.0000000000002" as="targetPoint" />
            <Array as="points">
              <mxPoint x="500" y="380" />
            </Array>
          </mxGeometry>
        </mxCell>
      </root>
    </mxGraphModel>
  </diagram>
</mxfile>
